<svg id="Layer_1" data-name="Layer 1" xmlns="http://www.w3.org/2000/svg" viewBox="0 0 501.61 283.33"><defs><style>.cls-1{fill:#dee7f6;}.cls-2{fill:#98b2dd;}.cls-19,.cls-3{fill:#c1d2ec;}.cls-4{fill:#fff;}.cls-5{opacity:0.8;}.cls-6{fill:#7d93ca;}.cls-7{fill:#788fc8;}.cls-8,.cls-9{fill:#a5443a;}.cls-14,.cls-9{opacity:0.3;}.cls-10{fill:#a9403f;}.cls-11{fill:#e75755;}.cls-12{fill:#ad4c48;}.cls-13{fill:#7089c5;}.cls-14,.cls-20{fill:#9e332f;}.cls-15{fill:#9f3530;}.cls-16{fill:#f59191;}.cls-17{fill:#f37269;}.cls-18{fill:#ea8787;}.cls-19{opacity:0.4;}.cls-21{fill:#ee9e9c;}.cls-22{fill:#ec6966;}.cls-23{fill:#4163ae;}.cls-24{fill:#9fb6df;}</style></defs><path class="cls-1" d="M561.66,227,254.59,279.21l-22.93-27.49,266.19-96.78C528.9,178,540.82,214.29,561.66,227Z" transform="translate(-63.09 -80.61)"/><path class="cls-1" d="M401.34,162.12,97.47,260c9-6.53-11.63-41.91.45-53.65Z" transform="translate(-63.09 -80.61)"/><path class="cls-1" d="M438.71,145.6a7.33,7.33,0,1,0,7.32,7.32A7.32,7.32,0,0,0,438.71,145.6Z" transform="translate(-63.09 -80.61)"/><rect class="cls-2" x="280.82" y="88.9" width="34.67" height="168.6"/><rect class="cls-3" x="288.6" y="88.9" width="34.67" height="168.6"/><rect class="cls-2" x="351.71" y="169.46" width="34.66" height="9.74" transform="translate(674.98 268.05) rotate(180)"/><rect class="cls-2" x="351.71" y="190.59" width="34.66" height="9.74" transform="translate(674.98 310.31) rotate(180)"/><rect class="cls-2" x="351.71" y="211.72" width="34.66" height="9.74" transform="translate(674.98 352.57) rotate(180)"/><rect class="cls-2" x="351.71" y="232.85" width="34.66" height="9.74" transform="translate(674.98 394.83) rotate(180)"/><rect class="cls-2" x="351.71" y="253.98" width="34.66" height="9.74" transform="translate(674.98 437.09) rotate(180)"/><rect class="cls-2" x="351.71" y="275.11" width="34.66" height="9.74" transform="translate(674.98 479.35) rotate(180)"/><rect class="cls-2" x="351.71" y="296.24" width="34.66" height="9.74" transform="translate(674.98 521.61) rotate(180)"/><rect class="cls-2" x="351.71" y="317.37" width="34.66" height="9.74" transform="translate(674.98 563.87) rotate(180)"/><rect class="cls-2" x="336.24" y="112.75" width="34.67" height="144.74"/><rect class="cls-3" x="344.03" y="112.75" width="34.67" height="144.74"/><rect class="cls-2" x="407.13" y="193.32" width="34.66" height="8.36" transform="translate(785.83 314.4) rotate(180)"/><rect class="cls-2" x="407.13" y="211.46" width="34.66" height="8.36" transform="translate(785.83 350.68) rotate(180)"/><rect class="cls-2" x="407.13" y="229.6" width="34.66" height="8.36" transform="translate(785.83 386.96) rotate(180)"/><rect class="cls-2" x="407.13" y="247.74" width="34.66" height="8.36" transform="translate(785.83 423.24) rotate(180)"/><rect class="cls-2" x="407.13" y="265.88" width="34.66" height="8.36" transform="translate(785.83 459.52) rotate(180)"/><rect class="cls-2" x="407.13" y="284.02" width="34.66" height="8.36" transform="translate(785.83 495.8) rotate(180)"/><rect class="cls-2" x="407.13" y="302.16" width="34.66" height="8.36" transform="translate(785.83 532.08) rotate(180)"/><rect class="cls-2" x="407.13" y="320.3" width="34.66" height="8.36" transform="translate(785.83 568.36) rotate(180)"/><rect class="cls-4" x="325.15" y="332.93" width="14.52" height="21.17" transform="translate(601.72 606.42) rotate(180)"/><path class="cls-4" d="M329.58,304.05v58.78H174.74l-39.24-.37-.12-.21c-.07-.11-.14-.24-.23-.4l-.1-.17c-.11-.2-.25-.44-.39-.71s-.38-.7-.6-1.11h0c-.83-1.55-1.92-3.7-3.17-6.36-.41-.88-.83-1.81-1.27-2.8l-.52-1.2h0c-.17-.4-.35-.8-.52-1.21l0,0-.35-.86c-.13-.3-.26-.6-.38-.91-.64-1.58-1.3-3.25-2-5l-.06-.14h0c-.42-1.16-.85-2.35-1.27-3.58-.23-.68-.46-1.36-.69-2.06,0,0,0-.09,0-.13l-.3-.93c-.08-.27-.17-.53-.25-.8l-.51-1.65c-.22-.72-.44-1.45-.65-2.18-.28-1-.56-2-.84-3.05L121,326c-.24-.93-.48-1.88-.71-2.83-.07-.31-.15-.62-.22-.93s-.09-.38-.13-.57c-.35-1.52-.68-3.06-1-4.63-.34-1.73-.65-3.5-.93-5.29s-.49-3.34-.69-5.05-.36-3.24-.49-4.89c-.31-3.86-.45-7.82-.39-11.85a110,110,0,0,1,2.42-21.61l.18-.8q.58-2.62,1.32-5.25c.37-1.33.77-2.67,1.21-4q.47-1.45,1-2.91c.79-2.2,1.66-4.39,2.63-6.59h.82V247a110.33,110.33,0,0,1,24-33.14l.62-.6h.64v22.49h19.9V199.07h22v23.78h5V194.46h22v53.23h27.77v31.05h10.37v7.82h23.83V273.09h13.69V236.5h16.9v67.55Z" transform="translate(-63.09 -80.61)"/><rect class="cls-1" x="198.16" y="198.05" width="21.97" height="5.42" transform="translate(355.2 320.92) rotate(180)"/><rect class="cls-1" x="198.16" y="208.24" width="21.97" height="5.42" transform="translate(355.2 341.3) rotate(180)"/><rect class="cls-1" x="198.16" y="217.41" width="21.97" height="5.42" transform="translate(355.2 359.64) rotate(180)"/><rect class="cls-1" x="171.2" y="217.41" width="21.97" height="5.42" transform="translate(301.28 359.64) rotate(180)"/><rect class="cls-1" x="171.2" y="208.24" width="21.97" height="5.42" transform="translate(301.28 341.3) rotate(180)"/><rect class="cls-1" x="171.2" y="199.09" width="21.97" height="5.42" transform="translate(301.28 323) rotate(180)"/><rect class="cls-1" x="171.2" y="226.3" width="48.93" height="5.42" transform="translate(328.23 377.42) rotate(180)"/><rect class="cls-1" x="171.2" y="235.19" width="48.93" height="5.42" transform="translate(328.23 395.19) rotate(180)"/><rect class="cls-1" x="295.62" y="236.5" width="17.05" height="8.37" transform="translate(545.2 400.77) rotate(180)"/><rect class="cls-1" x="295.62" y="248.95" width="17.05" height="8.37" transform="translate(545.2 425.67) rotate(180)"/><rect class="cls-1" x="295.62" y="261.4" width="17.05" height="8.37" transform="translate(545.2 450.57) rotate(180)"/><rect class="cls-1" x="295.62" y="274.46" width="17.05" height="8.37" transform="translate(545.2 476.68) rotate(180)"/><rect class="cls-1" x="295.62" y="287.1" width="17.05" height="8.37" transform="translate(545.2 501.97) rotate(180)"/><rect class="cls-1" x="295.62" y="299.75" width="17.05" height="8.37" transform="translate(545.2 527.27) rotate(180)"/><rect class="cls-1" x="295.62" y="312.98" width="17.05" height="8.37" transform="translate(545.2 553.73) rotate(180)"/><rect class="cls-1" x="171.2" y="243.87" width="48.93" height="3.44" transform="translate(328.23 410.59) rotate(180)"/><rect class="cls-1" x="226.48" y="155.9" width="6.29" height="36.59"/><rect class="cls-1" x="206.35" y="192.48" width="12.65" height="13.47"/><path class="cls-1" d="M171.2,199.09v36.62h-4.36V199.52l.59-.43Z" transform="translate(-63.09 -80.61)"/><rect class="cls-1" x="132.39" y="113.85" width="2.68" height="28.37"/><g class="cls-5"><rect class="cls-1" x="239.63" y="253.04" width="3.72" height="5.25" transform="translate(419.88 430.71) rotate(180)"/><rect class="cls-1" x="232.67" y="253.04" width="3.72" height="5.25" transform="translate(405.96 430.71) rotate(180)"/><rect class="cls-1" x="225.86" y="253.04" width="3.72" height="5.25" transform="translate(392.35 430.71) rotate(180)"/><rect class="cls-1" x="219.41" y="253.04" width="3.72" height="5.25" transform="translate(379.45 430.71) rotate(180)"/><rect class="cls-1" x="212.83" y="253.04" width="3.72" height="5.25" transform="translate(366.3 430.71) rotate(180)"/><rect class="cls-1" x="206.18" y="253.04" width="3.72" height="5.25" transform="translate(352.99 430.71) rotate(180)"/><rect class="cls-1" x="199.22" y="253.04" width="3.72" height="5.25" transform="translate(339.07 430.71) rotate(180)"/><rect class="cls-1" x="192.42" y="253.04" width="3.72" height="5.25" transform="translate(325.46 430.71) rotate(180)"/><rect class="cls-1" x="185.97" y="253.04" width="3.72" height="5.25" transform="translate(312.56 430.71) rotate(180)"/><rect class="cls-1" x="179.39" y="253.04" width="3.72" height="5.25" transform="translate(299.41 430.71) rotate(180)"/><rect class="cls-1" x="172.54" y="253.04" width="3.72" height="5.25" transform="translate(285.71 430.71) rotate(180)"/><rect class="cls-1" x="165.58" y="253.04" width="3.72" height="5.25" transform="translate(271.78 430.71) rotate(180)"/><rect class="cls-1" x="158.77" y="253.04" width="3.72" height="5.25" transform="translate(258.18 430.71) rotate(180)"/><rect class="cls-1" x="152.32" y="253.04" width="3.72" height="5.25" transform="translate(245.27 430.71) rotate(180)"/><rect class="cls-1" x="145.75" y="253.04" width="3.72" height="5.25" transform="translate(232.12 430.71) rotate(180)"/><rect class="cls-1" x="139.09" y="253.04" width="3.72" height="5.25" transform="translate(218.82 430.71) rotate(180)"/><rect class="cls-1" x="132.13" y="253.04" width="3.72" height="5.25" transform="translate(204.9 430.71) rotate(180)"/><rect class="cls-1" x="125.33" y="253.04" width="3.72" height="5.25" transform="translate(191.29 430.71) rotate(180)"/><path class="cls-1" d="M122.6,255.37v2.91h-1Q122.08,256.83,122.6,255.37Z" transform="translate(-63.09 -80.61)"/><rect class="cls-1" x="239.63" y="262.29" width="3.72" height="5.25" transform="translate(419.88 449.23) rotate(180)"/><rect class="cls-1" x="232.67" y="262.29" width="3.72" height="5.25" transform="translate(405.96 449.23) rotate(180)"/><rect class="cls-1" x="225.86" y="262.29" width="3.72" height="5.25" transform="translate(392.35 449.23) rotate(180)"/><rect class="cls-1" x="219.41" y="262.29" width="3.72" height="5.25" transform="translate(379.45 449.23) rotate(180)"/><rect class="cls-1" x="212.83" y="262.29" width="3.72" height="5.25" transform="translate(366.3 449.23) rotate(180)"/><rect class="cls-1" x="206.18" y="262.29" width="3.72" height="5.25" transform="translate(352.99 449.23) rotate(180)"/><rect class="cls-1" x="199.22" y="262.29" width="3.72" height="5.25" transform="translate(339.07 449.23) rotate(180)"/><rect class="cls-1" x="192.42" y="262.29" width="3.72" height="5.25" transform="translate(325.46 449.23) rotate(180)"/><rect class="cls-1" x="185.97" y="262.29" width="3.72" height="5.25" transform="translate(312.56 449.23) rotate(180)"/><rect class="cls-1" x="179.39" y="262.29" width="3.72" height="5.25" transform="translate(299.41 449.23) rotate(180)"/><rect class="cls-1" x="172.54" y="262.29" width="3.72" height="5.25" transform="translate(285.71 449.23) rotate(180)"/><rect class="cls-1" x="165.58" y="262.29" width="3.72" height="5.25" transform="translate(271.78 449.23) rotate(180)"/><rect class="cls-1" x="158.77" y="262.29" width="3.72" height="5.25" transform="translate(258.18 449.23) rotate(180)"/><rect class="cls-1" x="152.32" y="262.29" width="3.72" height="5.25" transform="translate(245.27 449.23) rotate(180)"/><rect class="cls-1" x="145.75" y="262.29" width="3.72" height="5.25" transform="translate(232.12 449.23) rotate(180)"/><rect class="cls-1" x="139.09" y="262.29" width="3.72" height="5.25" transform="translate(218.82 449.23) rotate(180)"/><rect class="cls-1" x="132.13" y="262.29" width="3.72" height="5.25" transform="translate(204.9 449.23) rotate(180)"/><rect class="cls-1" x="125.33" y="262.29" width="3.72" height="5.25" transform="translate(191.29 449.23) rotate(180)"/><path class="cls-1" d="M122.6,262.29v5.25h-3.52q.58-2.62,1.32-5.25Z" transform="translate(-63.09 -80.61)"/><rect class="cls-1" x="239.63" y="271.41" width="3.72" height="5.25" transform="translate(419.88 467.46) rotate(180)"/><rect class="cls-1" x="232.67" y="271.41" width="3.72" height="5.25" transform="translate(405.96 467.46) rotate(180)"/><rect class="cls-1" x="225.86" y="271.41" width="3.72" height="5.25" transform="translate(392.35 467.46) rotate(180)"/><rect class="cls-1" x="219.41" y="271.41" width="3.72" height="5.25" transform="translate(379.45 467.46) rotate(180)"/><rect class="cls-1" x="212.83" y="271.41" width="3.72" height="5.25" transform="translate(366.3 467.46) rotate(180)"/><rect class="cls-1" x="206.18" y="271.41" width="3.72" height="5.25" transform="translate(352.99 467.46) rotate(180)"/><rect class="cls-1" x="199.22" y="271.41" width="3.72" height="5.25" transform="translate(339.07 467.46) rotate(180)"/><rect class="cls-1" x="192.42" y="271.41" width="3.72" height="5.25" transform="translate(325.46 467.46) rotate(180)"/><rect class="cls-1" x="185.97" y="271.41" width="3.72" height="5.25" transform="translate(312.56 467.46) rotate(180)"/><rect class="cls-1" x="179.39" y="271.41" width="3.72" height="5.25" transform="translate(299.41 467.46) rotate(180)"/><rect class="cls-1" x="172.54" y="271.41" width="3.72" height="5.25" transform="translate(285.71 467.46) rotate(180)"/><rect class="cls-1" x="165.58" y="271.41" width="3.72" height="5.25" transform="translate(271.78 467.46) rotate(180)"/><rect class="cls-1" x="158.77" y="271.41" width="3.72" height="5.25" transform="translate(258.18 467.46) rotate(180)"/><rect class="cls-1" x="152.32" y="271.41" width="3.72" height="5.25" transform="translate(245.27 467.46) rotate(180)"/><rect class="cls-1" x="145.75" y="271.41" width="3.72" height="5.25" transform="translate(232.12 467.46) rotate(180)"/><rect class="cls-1" x="139.09" y="271.41" width="3.72" height="5.25" transform="translate(218.82 467.46) rotate(180)"/><rect class="cls-1" x="132.13" y="271.41" width="3.72" height="5.25" transform="translate(204.9 467.46) rotate(180)"/><rect class="cls-1" x="125.33" y="271.41" width="3.72" height="5.25" transform="translate(191.29 467.46) rotate(180)"/><rect class="cls-1" x="118.88" y="271.41" width="3.72" height="5.25" transform="translate(178.39 467.46) rotate(180)"/><rect class="cls-1" x="239.63" y="281.09" width="3.72" height="5.25" transform="translate(419.88 486.83) rotate(180)"/><rect class="cls-1" x="232.67" y="281.09" width="3.72" height="5.25" transform="translate(405.96 486.83) rotate(180)"/><rect class="cls-1" x="225.86" y="281.09" width="3.72" height="5.25" transform="translate(392.35 486.83) rotate(180)"/><rect class="cls-1" x="219.41" y="281.09" width="3.72" height="5.25" transform="translate(379.45 486.83) rotate(180)"/><rect class="cls-1" x="212.83" y="281.09" width="3.72" height="5.25" transform="translate(366.3 486.83) rotate(180)"/><rect class="cls-1" x="206.18" y="281.09" width="3.72" height="5.25" transform="translate(352.99 486.83) rotate(180)"/><rect class="cls-1" x="199.22" y="281.09" width="3.72" height="5.25" transform="translate(339.07 486.83) rotate(180)"/><rect class="cls-1" x="192.42" y="281.09" width="3.72" height="5.25" transform="translate(325.46 486.83) rotate(180)"/><rect class="cls-1" x="185.97" y="281.09" width="3.72" height="5.25" transform="translate(312.56 486.83) rotate(180)"/><rect class="cls-1" x="179.39" y="281.09" width="3.72" height="5.25" transform="translate(299.41 486.83) rotate(180)"/><rect class="cls-1" x="172.54" y="281.09" width="3.72" height="5.25" transform="translate(285.71 486.83) rotate(180)"/><rect class="cls-1" x="165.58" y="281.09" width="3.72" height="5.25" transform="translate(271.78 486.83) rotate(180)"/><rect class="cls-1" x="158.77" y="281.09" width="3.72" height="5.25" transform="translate(258.18 486.83) rotate(180)"/><rect class="cls-1" x="152.32" y="281.09" width="3.72" height="5.25" transform="translate(245.27 486.83) rotate(180)"/><rect class="cls-1" x="145.75" y="281.09" width="3.72" height="5.25" transform="translate(232.12 486.83) rotate(180)"/><rect class="cls-1" x="139.09" y="281.09" width="3.72" height="5.25" transform="translate(218.82 486.83) rotate(180)"/><rect class="cls-1" x="132.13" y="281.09" width="3.72" height="5.25" transform="translate(204.9 486.83) rotate(180)"/><rect class="cls-1" x="125.33" y="281.09" width="3.72" height="5.25" transform="translate(191.29 486.83) rotate(180)"/><rect class="cls-1" x="118.88" y="281.09" width="3.72" height="5.25" transform="translate(178.39 486.83) rotate(180)"/><rect class="cls-1" x="239.63" y="290.35" width="3.72" height="5.25" transform="translate(419.88 505.34) rotate(180)"/><rect class="cls-1" x="232.67" y="290.35" width="3.72" height="5.25" transform="translate(405.96 505.34) rotate(180)"/><rect class="cls-1" x="225.86" y="290.35" width="3.72" height="5.25" transform="translate(392.35 505.34) rotate(180)"/><rect class="cls-1" x="219.41" y="290.35" width="3.72" height="5.25" transform="translate(379.45 505.34) rotate(180)"/><rect class="cls-1" x="212.83" y="290.35" width="3.72" height="5.25" transform="translate(366.3 505.34) rotate(180)"/><rect class="cls-1" x="206.18" y="290.35" width="3.72" height="5.25" transform="translate(352.99 505.34) rotate(180)"/><rect class="cls-1" x="199.22" y="290.35" width="3.72" height="5.25" transform="translate(339.07 505.34) rotate(180)"/><rect class="cls-1" x="192.42" y="290.35" width="3.72" height="5.25" transform="translate(325.46 505.34) rotate(180)"/><rect class="cls-1" x="185.97" y="290.35" width="3.72" height="5.25" transform="translate(312.56 505.34) rotate(180)"/><rect class="cls-1" x="179.39" y="290.35" width="3.72" height="5.25" transform="translate(299.41 505.34) rotate(180)"/><rect class="cls-1" x="172.54" y="290.35" width="3.72" height="5.25" transform="translate(285.71 505.34) rotate(180)"/><rect class="cls-1" x="165.58" y="290.35" width="3.72" height="5.25" transform="translate(271.78 505.34) rotate(180)"/><rect class="cls-1" x="158.77" y="290.35" width="3.72" height="5.25" transform="translate(258.18 505.34) rotate(180)"/><rect class="cls-1" x="152.32" y="290.35" width="3.72" height="5.25" transform="translate(245.27 505.34) rotate(180)"/><rect class="cls-1" x="145.75" y="290.35" width="3.72" height="5.25" transform="translate(232.12 505.34) rotate(180)"/><rect class="cls-1" x="139.09" y="290.35" width="3.72" height="5.25" transform="translate(218.82 505.34) rotate(180)"/><rect class="cls-1" x="132.13" y="290.35" width="3.72" height="5.25" transform="translate(204.9 505.34) rotate(180)"/><rect class="cls-1" x="125.33" y="290.35" width="3.72" height="5.25" transform="translate(191.29 505.34) rotate(180)"/><rect class="cls-1" x="118.88" y="290.35" width="3.72" height="5.25" transform="translate(178.39 505.34) rotate(180)"/><rect class="cls-1" x="239.63" y="299.47" width="3.72" height="5.25" transform="translate(419.88 523.58) rotate(180)"/><rect class="cls-1" x="232.67" y="299.47" width="3.72" height="5.25" transform="translate(405.96 523.58) rotate(180)"/><rect class="cls-1" x="225.86" y="299.47" width="3.72" height="5.25" transform="translate(392.35 523.58) rotate(180)"/><rect class="cls-1" x="219.41" y="299.47" width="3.72" height="5.25" transform="translate(379.45 523.58) rotate(180)"/><rect class="cls-1" x="212.83" y="299.47" width="3.72" height="5.25" transform="translate(366.3 523.58) rotate(180)"/><rect class="cls-1" x="206.18" y="299.47" width="3.72" height="5.25" transform="translate(352.99 523.58) rotate(180)"/><rect class="cls-1" x="199.22" y="299.47" width="3.72" height="5.25" transform="translate(339.07 523.58) rotate(180)"/><rect class="cls-1" x="192.42" y="299.47" width="3.72" height="5.25" transform="translate(325.46 523.58) rotate(180)"/><rect class="cls-1" x="185.97" y="299.47" width="3.72" height="5.25" transform="translate(312.56 523.58) rotate(180)"/><rect class="cls-1" x="179.39" y="299.47" width="3.72" height="5.25" transform="translate(299.41 523.58) rotate(180)"/><rect class="cls-1" x="172.54" y="299.47" width="3.72" height="5.25" transform="translate(285.71 523.58) rotate(180)"/><rect class="cls-1" x="165.58" y="299.47" width="3.72" height="5.25" transform="translate(271.78 523.58) rotate(180)"/><rect class="cls-1" x="158.77" y="299.47" width="3.72" height="5.25" transform="translate(258.18 523.58) rotate(180)"/><rect class="cls-1" x="152.32" y="299.47" width="3.72" height="5.25" transform="translate(245.27 523.58) rotate(180)"/><rect class="cls-1" x="145.75" y="299.47" width="3.72" height="5.25" transform="translate(232.12 523.58) rotate(180)"/><rect class="cls-1" x="139.09" y="299.47" width="3.72" height="5.25" transform="translate(218.82 523.58) rotate(180)"/><rect class="cls-1" x="132.13" y="299.47" width="3.72" height="5.25" transform="translate(204.9 523.58) rotate(180)"/><rect class="cls-1" x="125.33" y="299.47" width="3.72" height="5.25" transform="translate(191.29 523.58) rotate(180)"/><rect class="cls-1" x="118.88" y="299.47" width="3.72" height="5.25" transform="translate(178.39 523.58) rotate(180)"/></g><rect class="cls-2" x="183.18" y="315.91" width="86.27" height="46.54" transform="translate(389.53 597.74) rotate(180)"/><rect class="cls-2" x="248.59" y="339.18" width="86.27" height="23.27" transform="translate(520.36 621.02) rotate(180)"/><path class="cls-2" d="M176.26,323.16v39.29H135.5l-.12-.21c-.07-.11-.14-.24-.23-.4l-.1-.17c-.11-.2-.25-.44-.39-.71s-.38-.7-.6-1.11h0c-.83-1.55-1.92-3.7-3.17-6.36-.41-.88-.83-1.81-1.27-2.8l-.52-1.2h0c-.17-.4-.35-.8-.52-1.21l0,0-.35-.86c-.13-.3-.26-.6-.38-.91-.64-1.58-1.3-3.25-2-5l-.06-.14h0c-.42-1.16-.85-2.35-1.27-3.58-.23-.68-.46-1.36-.69-2.06,0,0,0-.09,0-.13l-.3-.93c-.08-.27-.17-.53-.25-.8l-.51-1.65c-.22-.72-.44-1.45-.65-2.18-.28-1-.56-2-.84-3.05L121,326c-.24-.93-.48-1.88-.71-2.83Z" transform="translate(-63.09 -80.61)"/><rect class="cls-4" x="247.61" y="321.36" width="16.07" height="8.62" transform="translate(448.2 570.72) rotate(180)"/><rect class="cls-4" x="226.98" y="321.36" width="16.07" height="8.62" transform="translate(406.93 570.72) rotate(180)"/><rect class="cls-4" x="206.74" y="321.36" width="16.07" height="8.62" transform="translate(366.46 570.72) rotate(180)"/><rect class="cls-4" x="186.89" y="321.36" width="16.07" height="8.62" transform="translate(326.75 570.72) rotate(180)"/><rect class="cls-6" x="175.79" y="315.91" width="8.28" height="46.94" transform="translate(296.77 598.14) rotate(180)"/><rect class="cls-4" x="308.83" y="232.86" width="0.45" height="3.64" transform="translate(555.01 388.75) rotate(180)"/><rect class="cls-4" x="292.72" y="232.86" width="0.45" height="3.64" transform="translate(522.79 388.75) rotate(180)"/><path class="cls-4" d="M117.36,306.69c.2,1.71.43,3.39.69,5.05s.59,3.56.93,5.29c.3,1.57.63,3.11,1,4.63,0,.19.09.38.13.57s.15.62.22.93c.23.95.47,1.9.71,2.83l.24.94c.28,1,.56,2.05.84,3.05.21.73.43,1.46.65,2.18l.51,1.65c.08.27.17.53.25.8l.3.93s0,.09,0,.13c.23.7.46,1.38.69,2.06.42,1.23.85,2.42,1.27,3.58h0l.06.14c.65,1.77,1.31,3.44,2,5,.12.31.25.61.38.91l.35.86,0,0V306.69Z" transform="translate(-63.09 -80.61)"/><path class="cls-4" d="M128.58,322.23v26l0,0-.35-.86c-.13-.3-.26-.6-.38-.91-.64-1.58-1.3-3.25-2-5l-.06-.14h0c-.42-1.16-.85-2.35-1.27-3.58-.23-.68-.46-1.36-.69-2.06,0,0,0-.09,0-.13l-.3-.93c-.08-.27-.17-.53-.25-.8l-.51-1.65c-.22-.72-.44-1.45-.65-2.18-.28-1-.56-2-.84-3.05L121,326c-.24-.93-.48-1.88-.71-2.83-.07-.31-.15-.62-.22-.93Z" transform="translate(-63.09 -80.61)"/><path class="cls-1" d="M128.58,317v13H122.1c-.28-1-.56-2-.84-3.05L121,326c-.24-.93-.48-1.88-.71-2.83-.07-.31-.15-.62-.22-.93s-.09-.38-.13-.57c-.35-1.52-.68-3.06-1-4.63Z" transform="translate(-63.09 -80.61)"/><path class="cls-1" d="M124.55,333.81v3.92c-.23-.68-.46-1.36-.69-2.06,0,0,0-.09,0-.13l-.3-.93c-.08-.27-.17-.53-.25-.8Z" transform="translate(-63.09 -80.61)"/><rect class="cls-6" x="121.51" y="320.67" width="2.56" height="4.42" transform="translate(182.48 565.15) rotate(180)"/><rect class="cls-3" x="318.53" y="322.23" width="59.23" height="39.84" transform="translate(633.2 603.69) rotate(180)"/><rect class="cls-1" x="318.53" y="317.03" width="59.23" height="12.95" transform="translate(633.2 566.4) rotate(180)"/><rect class="cls-1" x="370.69" y="333.81" width="3.04" height="4.29" transform="translate(681.33 591.31) rotate(180)"/><rect class="cls-1" x="365" y="333.81" width="3.04" height="4.29" transform="translate(669.95 591.31) rotate(180)"/><rect class="cls-1" x="359.44" y="333.81" width="3.04" height="4.29" transform="translate(658.83 591.31) rotate(180)"/><rect class="cls-1" x="354.17" y="333.81" width="3.04" height="4.29" transform="translate(648.28 591.31) rotate(180)"/><rect class="cls-1" x="348.79" y="333.81" width="3.04" height="4.29" transform="translate(637.54 591.31) rotate(180)"/><rect class="cls-1" x="343.36" y="333.81" width="3.04" height="4.29" transform="translate(626.66 591.31) rotate(180)"/><rect class="cls-1" x="337.67" y="333.81" width="3.04" height="4.29" transform="translate(615.29 591.31) rotate(180)"/><rect class="cls-1" x="332.11" y="333.81" width="3.04" height="4.29" transform="translate(604.16 591.31) rotate(180)"/><rect class="cls-1" x="326.83" y="333.81" width="3.04" height="4.29" transform="translate(593.62 591.31) rotate(180)"/><rect class="cls-1" x="321.46" y="333.81" width="3.04" height="4.29" transform="translate(582.87 591.31) rotate(180)"/><rect class="cls-1" x="370.69" y="341.38" width="3.04" height="4.29" transform="translate(681.33 606.44) rotate(180)"/><rect class="cls-1" x="365" y="341.38" width="3.04" height="4.29" transform="translate(669.95 606.44) rotate(180)"/><rect class="cls-1" x="359.44" y="341.38" width="3.04" height="4.29" transform="translate(658.83 606.44) rotate(180)"/><rect class="cls-1" x="354.17" y="341.38" width="3.04" height="4.29" transform="translate(648.28 606.44) rotate(180)"/><rect class="cls-1" x="348.79" y="341.38" width="3.04" height="4.29" transform="translate(637.54 606.44) rotate(180)"/><rect class="cls-1" x="343.36" y="341.38" width="3.04" height="4.29" transform="translate(626.66 606.44) rotate(180)"/><rect class="cls-1" x="337.67" y="341.38" width="3.04" height="4.29" transform="translate(615.29 606.44) rotate(180)"/><rect class="cls-1" x="332.11" y="341.38" width="3.04" height="4.29" transform="translate(604.16 606.44) rotate(180)"/><rect class="cls-1" x="326.83" y="341.38" width="3.04" height="4.29" transform="translate(593.62 606.44) rotate(180)"/><rect class="cls-1" x="321.46" y="341.38" width="3.04" height="4.29" transform="translate(582.87 606.44) rotate(180)"/><rect class="cls-1" x="370.69" y="348.83" width="3.04" height="4.29" transform="translate(681.33 621.34) rotate(180)"/><rect class="cls-1" x="365" y="348.83" width="3.04" height="4.29" transform="translate(669.95 621.34) rotate(180)"/><rect class="cls-1" x="359.44" y="348.83" width="3.04" height="4.29" transform="translate(658.83 621.34) rotate(180)"/><rect class="cls-1" x="354.17" y="348.83" width="3.04" height="4.29" transform="translate(648.28 621.34) rotate(180)"/><rect class="cls-1" x="348.79" y="348.83" width="3.04" height="4.29" transform="translate(637.54 621.34) rotate(180)"/><rect class="cls-1" x="343.36" y="348.83" width="3.04" height="4.29" transform="translate(626.66 621.34) rotate(180)"/><rect class="cls-1" x="337.67" y="348.83" width="3.04" height="4.29" transform="translate(615.29 621.34) rotate(180)"/><rect class="cls-1" x="332.11" y="348.83" width="3.04" height="4.29" transform="translate(604.16 621.34) rotate(180)"/><rect class="cls-1" x="326.83" y="348.83" width="3.04" height="4.29" transform="translate(593.62 621.34) rotate(180)"/><rect class="cls-1" x="321.46" y="348.83" width="3.04" height="4.29" transform="translate(582.87 621.34) rotate(180)"/><rect class="cls-6" x="370.69" y="320.67" width="2.56" height="4.42" transform="translate(680.85 565.15) rotate(180)"/><rect class="cls-6" x="345.31" y="320.67" width="2.56" height="4.42" transform="translate(630.09 565.15) rotate(180)"/><rect class="cls-6" x="325.12" y="320.67" width="2.56" height="4.42" transform="translate(589.71 565.15) rotate(180)"/><rect class="cls-4" x="381.49" y="322.23" width="59.23" height="39.84" transform="translate(759.11 603.69) rotate(180)"/><rect class="cls-1" x="381.49" y="317.03" width="59.23" height="12.95" transform="translate(759.11 566.4) rotate(180)"/><rect class="cls-1" x="433.65" y="333.81" width="3.04" height="4.29" transform="translate(807.24 591.31) rotate(180)"/><rect class="cls-1" x="427.96" y="333.81" width="3.04" height="4.29" transform="translate(795.86 591.31) rotate(180)"/><rect class="cls-1" x="422.4" y="333.81" width="3.04" height="4.29" transform="translate(784.74 591.31) rotate(180)"/><rect class="cls-1" x="417.12" y="333.81" width="3.04" height="4.29" transform="translate(774.19 591.31) rotate(180)"/><rect class="cls-1" x="411.75" y="333.81" width="3.04" height="4.29" transform="translate(763.44 591.31) rotate(180)"/><rect class="cls-1" x="406.31" y="333.81" width="3.04" height="4.29" transform="translate(752.57 591.31) rotate(180)"/><rect class="cls-1" x="400.62" y="333.81" width="3.04" height="4.29" transform="translate(741.19 591.31) rotate(180)"/><rect class="cls-1" x="395.06" y="333.81" width="3.04" height="4.29" transform="translate(730.07 591.31) rotate(180)"/><rect class="cls-1" x="389.79" y="333.81" width="3.04" height="4.29" transform="translate(719.52 591.31) rotate(180)"/><rect class="cls-1" x="384.41" y="333.81" width="3.04" height="4.29" transform="translate(708.78 591.31) rotate(180)"/><rect class="cls-1" x="433.65" y="341.38" width="3.04" height="4.29" transform="translate(807.24 606.44) rotate(180)"/><rect class="cls-1" x="427.96" y="341.38" width="3.04" height="4.29" transform="translate(795.86 606.44) rotate(180)"/><rect class="cls-1" x="422.4" y="341.38" width="3.04" height="4.29" transform="translate(784.74 606.44) rotate(180)"/><rect class="cls-1" x="417.12" y="341.38" width="3.04" height="4.29" transform="translate(774.19 606.44) rotate(180)"/><rect class="cls-1" x="411.75" y="341.38" width="3.04" height="4.29" transform="translate(763.44 606.44) rotate(180)"/><rect class="cls-1" x="406.31" y="341.38" width="3.04" height="4.29" transform="translate(752.57 606.44) rotate(180)"/><rect class="cls-1" x="400.62" y="341.38" width="3.04" height="4.29" transform="translate(741.19 606.44) rotate(180)"/><rect class="cls-1" x="395.06" y="341.38" width="3.04" height="4.29" transform="translate(730.07 606.44) rotate(180)"/><rect class="cls-1" x="389.79" y="341.38" width="3.04" height="4.29" transform="translate(719.52 606.44) rotate(180)"/><rect class="cls-1" x="384.41" y="341.38" width="3.04" height="4.29" transform="translate(708.78 606.44) rotate(180)"/><rect class="cls-1" x="433.65" y="348.83" width="3.04" height="4.29" transform="translate(807.24 621.34) rotate(180)"/><rect class="cls-1" x="427.96" y="348.83" width="3.04" height="4.29" transform="translate(795.86 621.34) rotate(180)"/><rect class="cls-1" x="422.4" y="348.83" width="3.04" height="4.29" transform="translate(784.74 621.34) rotate(180)"/><rect class="cls-1" x="417.12" y="348.83" width="3.04" height="4.29" transform="translate(774.19 621.34) rotate(180)"/><rect class="cls-1" x="411.75" y="348.83" width="3.04" height="4.29" transform="translate(763.44 621.34) rotate(180)"/><rect class="cls-1" x="406.31" y="348.83" width="3.04" height="4.29" transform="translate(752.57 621.34) rotate(180)"/><rect class="cls-1" x="400.62" y="348.83" width="3.04" height="4.29" transform="translate(741.19 621.34) rotate(180)"/><rect class="cls-1" x="395.06" y="348.83" width="3.04" height="4.29" transform="translate(730.07 621.34) rotate(180)"/><rect class="cls-1" x="389.79" y="348.83" width="3.04" height="4.29" transform="translate(719.52 621.34) rotate(180)"/><rect class="cls-1" x="384.41" y="348.83" width="3.04" height="4.29" transform="translate(708.78 621.34) rotate(180)"/><rect class="cls-6" x="433.65" y="320.67" width="2.56" height="4.42" transform="translate(806.75 565.15) rotate(180)"/><rect class="cls-6" x="408.27" y="320.67" width="2.56" height="4.42" transform="translate(756 565.15) rotate(180)"/><rect class="cls-6" x="388.08" y="320.67" width="2.56" height="4.42" transform="translate(715.62 565.15) rotate(180)"/><rect class="cls-3" x="505.47" y="322.23" width="59.23" height="39.84" transform="translate(1007.08 603.69) rotate(180)"/><rect class="cls-2" x="505.47" y="317.03" width="59.23" height="12.95" transform="translate(1007.08 566.4) rotate(180)"/><rect class="cls-2" x="557.63" y="333.81" width="3.04" height="4.29" transform="translate(1055.21 591.31) rotate(180)"/><rect class="cls-2" x="551.94" y="333.81" width="3.04" height="4.29" transform="translate(1043.83 591.31) rotate(180)"/><rect class="cls-2" x="546.38" y="333.81" width="3.04" height="4.29" transform="translate(1032.71 591.31) rotate(180)"/><rect class="cls-2" x="541.1" y="333.81" width="3.04" height="4.29" transform="translate(1022.16 591.31) rotate(180)"/><rect class="cls-2" x="535.73" y="333.81" width="3.04" height="4.29" transform="translate(1011.41 591.31) rotate(180)"/><rect class="cls-2" x="530.29" y="333.81" width="3.04" height="4.29" transform="translate(1000.54 591.31) rotate(180)"/><rect class="cls-2" x="524.61" y="333.81" width="3.04" height="4.29" transform="translate(989.16 591.31) rotate(180)"/><rect class="cls-2" x="519.04" y="333.81" width="3.04" height="4.29" transform="translate(978.04 591.31) rotate(180)"/><rect class="cls-2" x="513.77" y="333.81" width="3.04" height="4.29" transform="translate(967.49 591.31) rotate(180)"/><rect class="cls-2" x="508.4" y="333.81" width="3.04" height="4.29" transform="translate(956.74 591.31) rotate(180)"/><rect class="cls-2" x="557.63" y="341.38" width="3.04" height="4.29" transform="translate(1055.21 606.44) rotate(180)"/><rect class="cls-2" x="551.94" y="341.38" width="3.04" height="4.29" transform="translate(1043.83 606.44) rotate(180)"/><rect class="cls-2" x="546.38" y="341.38" width="3.04" height="4.29" transform="translate(1032.71 606.44) rotate(180)"/><rect class="cls-2" x="541.1" y="341.38" width="3.04" height="4.29" transform="translate(1022.16 606.44) rotate(180)"/><rect class="cls-2" x="535.73" y="341.38" width="3.04" height="4.29" transform="translate(1011.41 606.44) rotate(180)"/><rect class="cls-2" x="530.29" y="341.38" width="3.04" height="4.29" transform="translate(1000.54 606.44) rotate(180)"/><rect class="cls-2" x="524.61" y="341.38" width="3.04" height="4.29" transform="translate(989.16 606.44) rotate(180)"/><rect class="cls-2" x="519.04" y="341.38" width="3.04" height="4.29" transform="translate(978.04 606.44) rotate(180)"/><rect class="cls-2" x="513.77" y="341.38" width="3.04" height="4.29" transform="translate(967.49 606.44) rotate(180)"/><rect class="cls-2" x="508.4" y="341.38" width="3.04" height="4.29" transform="translate(956.74 606.44) rotate(180)"/><rect class="cls-2" x="557.63" y="348.83" width="3.04" height="4.29" transform="translate(1055.21 621.34) rotate(180)"/><rect class="cls-2" x="551.94" y="348.83" width="3.04" height="4.29" transform="translate(1043.83 621.34) rotate(180)"/><rect class="cls-2" x="546.38" y="348.83" width="3.04" height="4.29" transform="translate(1032.71 621.34) rotate(180)"/><rect class="cls-2" x="541.1" y="348.83" width="3.04" height="4.29" transform="translate(1022.16 621.34) rotate(180)"/><rect class="cls-2" x="535.73" y="348.83" width="3.04" height="4.29" transform="translate(1011.41 621.34) rotate(180)"/><rect class="cls-2" x="530.29" y="348.83" width="3.04" height="4.29" transform="translate(1000.54 621.34) rotate(180)"/><rect class="cls-2" x="524.61" y="348.83" width="3.04" height="4.29" transform="translate(989.16 621.34) rotate(180)"/><rect class="cls-2" x="519.04" y="348.83" width="3.04" height="4.29" transform="translate(978.04 621.34) rotate(180)"/><rect class="cls-2" x="513.77" y="348.83" width="3.04" height="4.29" transform="translate(967.49 621.34) rotate(180)"/><rect class="cls-2" x="508.4" y="348.83" width="3.04" height="4.29" transform="translate(956.74 621.34) rotate(180)"/><rect class="cls-6" x="557.63" y="320.67" width="2.56" height="4.42" transform="translate(1054.72 565.15) rotate(180)"/><rect class="cls-6" x="532.25" y="320.67" width="2.56" height="4.42" transform="translate(1003.96 565.15) rotate(180)"/><rect class="cls-6" x="512.06" y="320.67" width="2.56" height="4.42" transform="translate(963.58 565.15) rotate(180)"/><path class="cls-7" d="M499.16,353.39v-.71c0-1.44,0-2.92,0-4.14a11.23,11.23,0,0,0-1.44-5.17,14.69,14.69,0,0,0-2.11-2.94l-2.32-1.88-7.79-6.27,0-.09a2.46,2.46,0,0,0,.45-.62,2.54,2.54,0,0,0,.27-1.13V326a2.52,2.52,0,0,0-2.52-2.51h-.8a2.42,2.42,0,0,0-1.28.36l-5.35-11.55a29.57,29.57,0,0,0-1.23-4.2c-1.46-3.85-5.6-6.47-10.31-6.47H424.39v.07H371.3v57.17h6.6c.59,2.95,2.38,5.12,4.52,5.12h3c2.14,0,3.93-2.17,4.52-5.12h13.77c.58,2.95,2.37,5.12,4.51,5.12h3c2.14,0,3.93-2.17,4.51-5.12h30.93a10.94,10.94,0,0,1-.15-1.83s0-.08,0-.13l.14,2H448c.59,2.95,2.38,5.12,4.52,5.12h3c2.14,0,3.93-2.17,4.52-5.12h22.2c.59,2.95,2.37,5.12,4.51,5.12h3c2.15,0,3.95-2.19,4.52-5.17A5.39,5.39,0,0,0,499.16,353.39Z" transform="translate(-63.09 -80.61)"/><path class="cls-8" d="M420.1,262.7v11.83a6.64,6.64,0,0,1-6.63,6.63h-2.12a6.64,6.64,0,0,1-6.63-6.63V262.7a6.51,6.51,0,0,1,1-3.41v0a6.64,6.64,0,0,1,5.67-3.2h2.12A6.65,6.65,0,0,1,420.1,262.7Z" transform="translate(-63.09 -80.61)"/><path class="cls-9" d="M419.4,277.49a6.63,6.63,0,0,1-5.93,3.67h-2.12a6.64,6.64,0,0,1-6.63-6.63V262.7a6.51,6.51,0,0,1,1-3.41C405.8,260,408.62,276.26,419.4,277.49Z" transform="translate(-63.09 -80.61)"/><polygon class="cls-10" points="251.89 268.72 284.66 268.72 284.66 235.63 250.47 235.63 251.89 268.72"/><path class="cls-11" d="M418.33,279.4l-161,4V198.45H363A26.87,26.87,0,0,1,387,213.07l6.92,13.5Z" transform="translate(-63.09 -80.61)"/><path class="cls-10" d="M326.85,343.94c0,9,4.63,18.88,4.63,18.88h7.85c6.88,0,12.47-8.45,12.47-18.88s-13.43-18.88-20.32-18.88S326.85,333.51,326.85,343.94Z" transform="translate(-63.09 -80.61)"/><ellipse class="cls-12" cx="268.39" cy="263.33" rx="12.47" ry="18.88"/><path class="cls-10" d="M322.25,343.94c0,7.86,4.2,14.22,9.39,14.22s9.4-6.36,9.4-14.22-4.21-14.22-9.4-14.22S322.25,336.08,322.25,343.94Z" transform="translate(-63.09 -80.61)"/><path class="cls-10" d="M417,343.94c0,9,4.64,18.88,4.64,18.88h7.84c6.89,0,12.47-8.45,12.47-18.88s-13.43-18.88-20.31-18.88S417,333.51,417,343.94Z" transform="translate(-63.09 -80.61)"/><path class="cls-12" d="M409.17,343.94c0,10.43,5.59,18.88,12.48,18.88s12.47-8.45,12.47-18.88-5.59-18.88-12.47-18.88S409.17,333.51,409.17,343.94Z" transform="translate(-63.09 -80.61)"/><path class="cls-10" d="M412.41,343.94c0,7.86,4.2,14.22,9.39,14.22s9.4-6.36,9.4-14.22-4.21-14.22-9.4-14.22S412.41,336.08,412.41,343.94Z" transform="translate(-63.09 -80.61)"/><path class="cls-10" d="M210,343.94c0,9,4.63,18.88,4.63,18.88h7.84c6.89,0,12.47-8.45,12.47-18.88s-13.42-18.88-20.31-18.88S210,333.51,210,343.94Z" transform="translate(-63.09 -80.61)"/><path class="cls-12" d="M202.12,343.94c0,10.43,5.59,18.88,12.48,18.88s12.47-8.45,12.47-18.88-5.58-18.88-12.47-18.88S202.12,333.51,202.12,343.94Z" transform="translate(-63.09 -80.61)"/><path class="cls-10" d="M205.36,343.94c0,7.86,4.21,14.22,9.39,14.22s9.4-6.36,9.4-14.22-4.21-14.22-9.4-14.22S205.36,336.08,205.36,343.94Z" transform="translate(-63.09 -80.61)"/><path class="cls-11" d="M454.38,335a14.26,14.26,0,0,1-14.26,14.29H347.76a29,29,0,0,0,.41-4.81c0-12.21-7.33-22.12-16.35-22.12s-16.36,9.91-16.36,22.12a28,28,0,0,0,.39,4.81h-54s-2.18-24.1-1.91-36.18c.21-10.52.21-31.12-.41-36.15,0-.75,52.05-.84,65.18-.89l3,0,.18.13.2.14c2.42,1.69,16,11.21,24.43,16.79,7.44,4.9,62.3,6.9,83.81,7.5,5.35.15,8.65.2,8.65.2a38.72,38.72,0,0,1,5.54,7.77,29.46,29.46,0,0,1,3.82,13.62c0,3.23,0,7.11,0,10.93C454.38,333.78,454.38,334.4,454.38,335Z" transform="translate(-63.09 -80.61)"/><path class="cls-13" d="M405.35,276.08H333a4.29,4.29,0,0,1-3.89-2.49l-17.91-39.86A2,2,0,0,1,313,231h76.34a4.26,4.26,0,0,1,3.89,2.55L406,262.82l3.21,7.33A4.25,4.25,0,0,1,405.35,276.08Z" transform="translate(-63.09 -80.61)"/><path class="cls-8" d="M371.64,333.16c0,1.24-.07,2.42-.14,3.47-.52,6.94-7.49,12.69-7.49,12.69H347.76a29,29,0,0,0,.41-4.81,28.25,28.25,0,0,0-2.32-11.35c-2.87-6.46-8.08-10.77-14-10.77s-11.18,4.31-14.05,10.77a29.27,29.27,0,0,0-1.92,16.16H257.3V198.46h47V228.4s14.1,33.12,20.44,47.7c1.57,3.64,2.68,6.11,3,6.65,1.41,2.69,34.17,19.27,39.59,24.15C370.3,309.61,371.8,323.69,371.64,333.16Z" transform="translate(-63.09 -80.61)"/><path class="cls-13" d="M304.83,238.12l15.41,38H293.79s-5.43-.91-6.12-12c-.74-11.84-.74-32.26-.74-32.26l11.61-.06C303,232.44,303.66,234.87,304.83,238.12Z" transform="translate(-63.09 -80.61)"/><polygon class="cls-11" points="381.88 220.23 296.11 220.23 264.79 195.6 264.61 195.47 351.13 195.47 375.76 215.3 381.88 220.23"/><path class="cls-1" d="M450.51,308.61a2.88,2.88,0,0,1-1.83,1.48l-12,2.23c-1,.2-1.8-1.57-1.54-3.39l1.18-8.09,0-.2.24-1.65a3.47,3.47,0,0,1,1.6-2.82l.7-.27,6.11,4.94A38.72,38.72,0,0,1,450.51,308.61Z" transform="translate(-63.09 -80.61)"/><path class="cls-8" d="M370.3,315.31l-7.75-.76a6.07,6.07,0,0,1-5.38-5l-1.79-9.8a1.43,1.43,0,0,1,0-.46c5.52,3.17,10.18,6,11.94,7.59C368.57,308.06,369.59,311.27,370.3,315.31Z" transform="translate(-63.09 -80.61)"/><path class="cls-1" d="M385,316.78l-14.71-1.47h0l-7.75-.76a6.07,6.07,0,0,1-5.38-5l-1.79-9.8a1.43,1.43,0,0,1,0-.46v0a3.27,3.27,0,0,1,3.92-3.32l22.9,4.66a4,4,0,0,1,3,2.81l2.69,9.95A2.69,2.69,0,0,1,385,316.78Z" transform="translate(-63.09 -80.61)"/><path class="cls-11" d="M393.88,226.57H304.52a51.56,51.56,0,0,0-2.58-12.25c-2-5.76-5.45-12.19-11.49-15.87h73c11.9,0,22.45,6.36,26.64,15.87a12.28,12.28,0,0,1,.52,1.19A74.9,74.9,0,0,1,393.88,226.57Z" transform="translate(-63.09 -80.61)"/><path class="cls-13" d="M370.32,315.31l-7.77-.76a6.07,6.07,0,0,1-5.38-5l-1.79-9.8a1.55,1.55,0,0,1,0-.48c5.52,3.19,10.18,6,11.94,7.61C368.57,308.06,369.59,311.27,370.32,315.31Z" transform="translate(-63.09 -80.61)"/><path class="cls-14" d="M454.38,335c0,7.89-6.68,14.29-14.95,14.29H347.76a29,29,0,0,0,.41-4.81,28.25,28.25,0,0,0-2.32-11.35H454.36C454.38,333.78,454.38,334.4,454.38,335Z" transform="translate(-63.09 -80.61)"/><path class="cls-14" d="M315.46,344.51a28,28,0,0,0,.39,4.81H257.3V333.16h60.47A28.25,28.25,0,0,0,315.46,344.51Z" transform="translate(-63.09 -80.61)"/><path class="cls-14" d="M394,301.54h35.08c1.12,0,2,1.51,1.8,3.18l-1.24,12.19c-.18,1.8-1.2,3.12-2.4,3.12h-28.9c-1.85,0-3.49-1.83-4-4.52l-2.08-10.36C391.86,303.35,392.75,301.54,394,301.54Z" transform="translate(-63.09 -80.61)"/><path class="cls-1" d="M406,262.82c-41.37-2.12-69.35-24.26-77.8-31.87h61.08a4.26,4.26,0,0,1,3.89,2.55Z" transform="translate(-63.09 -80.61)"/><rect class="cls-15" x="54.27" y="117.85" width="156.48" height="150.88"/><path class="cls-10" d="M312.4,256.59s1.33,15.35-6.24,19.55h14.15Z" transform="translate(-63.09 -80.61)"/><path class="cls-10" d="M314.47,266.86s-3.19-2.27-3.47-4.16v10.74h4.19Z" transform="translate(-63.09 -80.61)"/><path class="cls-11" d="M311,262.7v11.83a6.71,6.71,0,0,1-.69,3,6.64,6.64,0,0,1-5.94,3.67h-2.12a6.64,6.64,0,0,1-6.63-6.63V262.7a6.6,6.6,0,0,1,1-3.41v0a6.66,6.66,0,0,1,5.67-3.2h2.12A6.65,6.65,0,0,1,311,262.7Z" transform="translate(-63.09 -80.61)"/><path class="cls-14" d="M310.31,277.49a6.64,6.64,0,0,1-5.94,3.67h-2.12a6.64,6.64,0,0,1-6.63-6.63V262.7a6.6,6.6,0,0,1,1-3.41C296.71,260,299.52,276.26,310.31,277.49Z" transform="translate(-63.09 -80.61)"/><path class="cls-10" d="M168.47,349.33H130c-.81-3.47-3.26-28.21,18.31-28.21C167.89,321.12,169.33,343.69,168.47,349.33Z" transform="translate(-63.09 -80.61)"/><path class="cls-10" d="M142,343.94c0,9,4.63,18.88,4.63,18.88h7.84c6.89,0,12.48-8.45,12.48-18.88s-13.43-18.88-20.32-18.88S142,333.51,142,343.94Z" transform="translate(-63.09 -80.61)"/><path class="cls-12" d="M134.19,343.94c0,10.43,5.58,18.88,12.47,18.88s12.48-8.45,12.48-18.88-5.59-18.88-12.48-18.88S134.19,333.51,134.19,343.94Z" transform="translate(-63.09 -80.61)"/><path class="cls-10" d="M137.42,343.94c0,7.86,4.21,14.22,9.4,14.22s9.39-6.36,9.39-14.22-4.2-14.22-9.39-14.22S137.42,336.08,137.42,343.94Z" transform="translate(-63.09 -80.61)"/><path class="cls-14" d="M393.88,226.57H304.52a51.56,51.56,0,0,0-2.58-12.25h88.17a12.28,12.28,0,0,1,.52,1.19A74.9,74.9,0,0,1,393.88,226.57Z" transform="translate(-63.09 -80.61)"/><path class="cls-2" d="M317.77,105.13a29.22,29.22,0,0,0-29.22,29.23c0,16.14,29.22,52,29.22,52S347,150.5,347,134.36A29.22,29.22,0,0,0,317.77,105.13Zm0,42.59a13.66,13.66,0,1,1,13.67-13.66A13.67,13.67,0,0,1,317.77,147.72Z" transform="translate(-63.09 -80.61)"/><path class="cls-13" d="M259.56,290.28a.57.57,0,0,1-.43-.2l-.7-.85a.56.56,0,1,1,.86-.71l.7.84a.56.56,0,0,1-.07.79A.55.55,0,0,1,259.56,290.28Zm-1.65-2a.54.54,0,0,1-.43-.21c-.32-.38-.63-.76-1-1.16a.56.56,0,0,1,.08-.79.57.57,0,0,1,.79.08c.31.4.63.78.94,1.16a.56.56,0,0,1-.43.92ZM256,286a.55.55,0,0,1-.44-.21l-.94-1.17a.56.56,0,0,1,.09-.79.57.57,0,0,1,.79.09l.93,1.16a.56.56,0,0,1-.08.79A.53.53,0,0,1,256,286Zm-1.88-2.34a.56.56,0,0,1-.44-.21l-.92-1.18a.56.56,0,1,1,.88-.69l.92,1.17a.56.56,0,0,1-.44.91Zm-1.84-2.36a.55.55,0,0,1-.45-.22c-.3-.39-.61-.78-.91-1.19a.56.56,0,0,1,.1-.78.57.57,0,0,1,.79.1l.91,1.19a.56.56,0,0,1-.1.79A.6.6,0,0,1,252.3,281.26Zm-1.82-2.38a.58.58,0,0,1-.45-.22l-.9-1.21a.56.56,0,0,1,.91-.66c.29.4.59.8.89,1.19a.56.56,0,0,1-.11.79A.53.53,0,0,1,250.48,278.88Zm-1.78-2.4a.54.54,0,0,1-.45-.24c-.3-.4-.59-.8-.88-1.21a.56.56,0,1,1,.91-.66l.87,1.21a.56.56,0,0,1-.12.79A.59.59,0,0,1,248.7,276.48ZM247,274a.55.55,0,0,1-.46-.24l-.86-1.23a.56.56,0,0,1,.15-.78.55.55,0,0,1,.78.14l.85,1.23a.56.56,0,0,1-.14.78A.55.55,0,0,1,247,274Zm-1.7-2.47a.52.52,0,0,1-.46-.25l-.84-1.25a.55.55,0,0,1,.16-.77.56.56,0,0,1,.78.16l.83,1.24a.56.56,0,0,1-.47.87Zm-1.65-2.5a.57.57,0,0,1-.47-.25l-.81-1.27a.58.58,0,0,1,.18-.78.56.56,0,0,1,.77.18c.27.42.54.84.8,1.26a.55.55,0,0,1-.16.77A.59.59,0,0,1,243.61,269.07ZM242,266.54a.57.57,0,0,1-.48-.27l-.78-1.29a.56.56,0,1,1,1-.57l.78,1.27a.57.57,0,0,1-.19.78A.6.6,0,0,1,242,266.54ZM240.48,264a.55.55,0,0,1-.48-.28l-.75-1.31a.56.56,0,0,1,.21-.76.57.57,0,0,1,.77.21c.24.43.49.87.74,1.29a.57.57,0,0,1-.2.77A.6.6,0,0,1,240.48,264ZM239,261.36a.58.58,0,0,1-.49-.29l-.71-1.33a.56.56,0,1,1,1-.53c.23.44.47.88.71,1.32a.57.57,0,0,1-.23.76A.52.52,0,0,1,239,261.36Zm-1.4-2.65a.58.58,0,0,1-.5-.31c-.23-.45-.45-.9-.67-1.35a.56.56,0,1,1,1-.49l.67,1.33a.56.56,0,0,1-.24.75A.51.51,0,0,1,237.61,258.71Zm-1.32-2.7a.57.57,0,0,1-.51-.32l-.63-1.37a.56.56,0,1,1,1-.46c.21.45.41.9.63,1.35a.57.57,0,0,1-.27.75A.52.52,0,0,1,236.29,256Zm-1.24-2.73a.55.55,0,0,1-.51-.34c-.2-.46-.4-.92-.59-1.38a.57.57,0,0,1,.31-.74.56.56,0,0,1,.73.31c.19.46.38.91.58,1.37a.57.57,0,0,1-.29.74A.62.62,0,0,1,235.05,253.28Zm-1.14-2.77a.56.56,0,0,1-.52-.35l-.54-1.41a.56.56,0,1,1,1.05-.39c.18.46.35.93.53,1.39a.55.55,0,0,1-.31.72A.52.52,0,0,1,233.91,250.51Zm-1-2.8a.57.57,0,0,1-.53-.38l-.48-1.43a.56.56,0,0,1,.36-.71.58.58,0,0,1,.71.36c.15.47.31.94.47,1.41a.56.56,0,0,1-.34.71A.65.65,0,0,1,232.87,247.71Zm-.93-2.85a.56.56,0,0,1-.53-.4c-.15-.48-.29-1-.43-1.45a.57.57,0,0,1,.39-.69.57.57,0,0,1,.7.39c.13.47.27.95.41,1.42a.56.56,0,0,1-.37.7A.51.51,0,0,1,231.94,244.86Zm-.8-2.88a.58.58,0,0,1-.55-.42c-.12-.49-.24-1-.35-1.47a.55.55,0,0,1,.41-.67.56.56,0,0,1,.68.42c.11.47.23,1,.35,1.44a.55.55,0,0,1-.4.68Zm-.68-2.92a.56.56,0,0,1-.55-.45c-.1-.49-.2-1-.29-1.48a.56.56,0,0,1,1.11-.2c.08.48.18,1,.28,1.46a.56.56,0,0,1-.44.66Zm-.54-2.94a.56.56,0,0,1-.55-.48c-.08-.5-.15-1-.22-1.49a.56.56,0,0,1,.49-.63.56.56,0,0,1,.63.48q.09.74.21,1.47a.56.56,0,0,1-.47.64Zm-.38-3a.56.56,0,0,1-.56-.51c0-.5-.1-1-.14-1.5a.58.58,0,0,1,.52-.61.56.56,0,0,1,.6.52c0,.49.08,1,.13,1.48a.55.55,0,0,1-.5.61Zm-.23-3a.56.56,0,0,1-.56-.54c0-.5-.05-1-.06-1.51a.57.57,0,0,1,1.13,0c0,.49,0,1,.05,1.48a.57.57,0,0,1-.54.59Zm-.06-3h0a.57.57,0,0,1-.56-.57c0-.5,0-1,0-1.51a.56.56,0,1,1,1.12,0c0,.49,0,1,0,1.48A.57.57,0,0,1,229.25,227.16Zm.11-3h0a.55.55,0,0,1-.52-.59c0-.51.07-1,.12-1.51a.57.57,0,0,1,.61-.51.56.56,0,0,1,.51.61c0,.49-.09,1-.12,1.48A.57.57,0,0,1,229.36,224.17Zm.29-3h-.08a.56.56,0,0,1-.48-.63q.09-.75.21-1.5a.56.56,0,0,1,1.11.18c-.07.48-.15,1-.21,1.46A.55.55,0,0,1,229.65,221.18Zm.46-3H230a.56.56,0,0,1-.45-.66c.1-.49.2-1,.31-1.48a.56.56,0,1,1,1.09.24l-.3,1.45A.56.56,0,0,1,230.11,218.23Zm.65-2.92-.14,0a.57.57,0,0,1-.41-.68c.13-.49.26-1,.4-1.46a.56.56,0,0,1,.69-.39.57.57,0,0,1,.39.7c-.14.47-.27.95-.39,1.42A.55.55,0,0,1,230.76,215.31Zm.82-2.88a.47.47,0,0,1-.17,0,.56.56,0,0,1-.37-.7c.15-.48.32-1,.48-1.44a.56.56,0,1,1,1.06.38c-.16.46-.32.93-.47,1.4A.55.55,0,0,1,231.58,212.43Zm1-2.82a.65.65,0,0,1-.2,0,.57.57,0,0,1-.33-.73l.56-1.4a.56.56,0,0,1,1,.43c-.19.46-.37.92-.55,1.38A.56.56,0,0,1,232.57,209.61Zm1.15-2.77a.46.46,0,0,1-.23-.05.56.56,0,0,1-.29-.74c.21-.45.42-.91.64-1.37a.57.57,0,0,1,.75-.26.56.56,0,0,1,.26.75l-.62,1.34A.56.56,0,0,1,233.72,206.84Zm1.3-2.69a.58.58,0,0,1-.26-.06.56.56,0,0,1-.24-.76l.71-1.33a.56.56,0,0,1,.76-.22.55.55,0,0,1,.22.76c-.23.43-.47.87-.69,1.31A.57.57,0,0,1,235,204.15Zm1.44-2.62a.48.48,0,0,1-.28-.08.55.55,0,0,1-.2-.76c.25-.43.51-.87.78-1.3a.56.56,0,1,1,1,.59c-.26.42-.52.85-.76,1.27A.58.58,0,0,1,236.46,201.53ZM238,199a.5.5,0,0,1-.31-.1.55.55,0,0,1-.16-.77q.41-.63.84-1.26a.56.56,0,1,1,.92.64c-.28.41-.56.82-.82,1.23A.56.56,0,0,1,238,199Zm1.69-2.47a.52.52,0,0,1-.33-.11.55.55,0,0,1-.12-.78l.89-1.21a.56.56,0,0,1,.9.67c-.3.4-.6.8-.88,1.2A.58.58,0,0,1,239.73,196.52Zm1.8-2.39a.54.54,0,0,1-.34-.12.56.56,0,0,1-.1-.79l.95-1.17a.56.56,0,1,1,.87.71l-.94,1.16A.55.55,0,0,1,241.53,194.13Zm1.91-2.31a.58.58,0,0,1-.37-.13.57.57,0,0,1-.06-.79l1-1.14a.56.56,0,0,1,.83.75l-1,1.12A.54.54,0,0,1,243.44,191.82Zm2-2.23a.56.56,0,0,1-.41-.94l1-1.1a.57.57,0,0,1,.8,0,.56.56,0,0,1,0,.79l-1,1.08A.55.55,0,0,1,245.43,189.59Zm2.08-2.15a.57.57,0,0,1-.4-1l1.07-1.06a.56.56,0,0,1,.78.81c-.36.34-.71.69-1.06,1A.56.56,0,0,1,247.51,187.44Zm2.14-2.09a.58.58,0,0,1-.41-.17.57.57,0,0,1,0-.8l1.1-1a.57.57,0,0,1,.8,0,.56.56,0,0,1,0,.79l-1.09,1A.58.58,0,0,1,249.65,185.35Zm2.22-2a.57.57,0,0,1-.42-.19.55.55,0,0,1,.05-.79l1.13-1a.57.57,0,0,1,.79.06.56.56,0,0,1-.06.79l-1.12,1A.59.59,0,0,1,251.87,183.34Zm2.27-2a.57.57,0,0,1-.43-.2.56.56,0,0,1,.07-.79l1.16-1a.56.56,0,1,1,.71.87l-1.15.94A.55.55,0,0,1,254.14,181.39Zm2.32-1.89a.57.57,0,0,1-.43-.2.56.56,0,0,1,.07-.79l1.11-1a.57.57,0,0,1,.8,0,.58.58,0,0,1-.05.8l-1.14,1A.63.63,0,0,1,256.46,179.5Zm2.23-2a.58.58,0,0,1-.41-.17.56.56,0,0,1,0-.79c.35-.34.71-.69,1.05-1a.56.56,0,0,1,.79,0,.55.55,0,0,1,0,.79c-.35.36-.71.72-1.08,1.07A.54.54,0,0,1,258.69,177.5Zm2.09-2.13a.56.56,0,0,1-.41-.94c.33-.37.66-.74,1-1.11a.55.55,0,0,1,.79-.06.56.56,0,0,1,.07.79c-.33.38-.67.76-1,1.13A.56.56,0,0,1,260.78,175.37Zm1.94-2.28a.56.56,0,0,1-.44-.91c.3-.39.61-.78.9-1.17a.55.55,0,0,1,.78-.12.56.56,0,0,1,.12.78c-.3.41-.61.81-.92,1.21A.56.56,0,0,1,262.72,173.09Zm1.77-2.41a.5.5,0,0,1-.31-.1.56.56,0,0,1-.15-.78c.28-.4.55-.82.81-1.23a.55.55,0,0,1,.77-.18.57.57,0,0,1,.18.77c-.27.43-.55.86-.83,1.27A.57.57,0,0,1,264.49,170.68Zm1.6-2.53a.54.54,0,0,1-.28-.08.57.57,0,0,1-.21-.77q.38-.63.72-1.29a.56.56,0,0,1,1,.53c-.24.45-.49.89-.74,1.33A.55.55,0,0,1,266.09,168.15Zm1.4-2.64a.5.5,0,0,1-.24-.06.55.55,0,0,1-.26-.75c.21-.44.42-.89.62-1.34a.56.56,0,0,1,1,.46c-.2.46-.41.92-.63,1.37A.57.57,0,0,1,267.49,165.51Zm1.21-2.74a.52.52,0,0,1-.21,0,.55.55,0,0,1-.31-.73c.18-.45.35-.91.52-1.37a.56.56,0,1,1,1.05.37c-.16.48-.35.95-.53,1.42A.56.56,0,0,1,268.7,162.77Zm1-2.81-.18,0a.56.56,0,0,1-.36-.7c.15-.47.29-.94.42-1.42a.58.58,0,0,1,.7-.39.57.57,0,0,1,.38.7c-.13.48-.28,1-.43,1.45A.56.56,0,0,1,269.71,160Zm.8-2.88-.13,0a.55.55,0,0,1-.41-.68c.11-.47.22-.95.32-1.44a.57.57,0,0,1,.67-.43.55.55,0,0,1,.43.66c-.1.5-.21,1-.33,1.48A.56.56,0,0,1,270.51,157.08Zm.61-2.93H271a.56.56,0,0,1-.46-.65c.08-.48.16-1,.23-1.46a.56.56,0,0,1,.63-.48.57.57,0,0,1,.48.64c-.07.5-.15,1-.23,1.49A.57.57,0,0,1,271.12,154.15Zm.42-3h-.06a.56.56,0,0,1-.5-.62c.06-.48.1-1,.14-1.47a.56.56,0,0,1,.6-.52.58.58,0,0,1,.52.61c0,.5-.09,1-.14,1.5A.57.57,0,0,1,271.54,151.19Zm.23-3h0a.57.57,0,0,1-.53-.59c0-.49,0-1,.05-1.48a.56.56,0,0,1,.57-.55.57.57,0,0,1,.55.57c0,.51,0,1-.05,1.51A.55.55,0,0,1,271.77,148.2Zm.05-3a.56.56,0,0,1-.56-.55c0-.49,0-1,0-1.48a.56.56,0,0,1,.54-.58.55.55,0,0,1,.58.53c0,.51,0,1,0,1.52a.54.54,0,0,1-.55.56Zm-.12-3a.57.57,0,0,1-.56-.52c0-.49-.07-1-.12-1.48a.56.56,0,0,1,1.12-.11c.05.51.09,1,.12,1.51a.56.56,0,0,1-.52.6Zm-.28-3a.55.55,0,0,1-.55-.49c-.06-.49-.13-1-.2-1.47a.56.56,0,0,1,.47-.64.57.57,0,0,1,.64.48c.07.49.14,1,.2,1.49a.56.56,0,0,1-.49.63Zm-.43-3a.57.57,0,0,1-.56-.47c-.08-.48-.17-1-.27-1.45a.57.57,0,0,1,1.11-.22c.09.49.19,1,.27,1.48a.56.56,0,0,1-.46.65Zm-.58-2.94a.56.56,0,0,1-.55-.44c-.11-.48-.22-1-.34-1.44a.56.56,0,1,1,1.09-.27c.12.49.24,1,.35,1.47a.57.57,0,0,1-.43.67Zm-.72-2.9a.56.56,0,0,1-.54-.42c-.13-.47-.27-.95-.41-1.42a.58.58,0,0,1,.38-.7.56.56,0,0,1,.7.38c.14.48.28,1,.41,1.45a.56.56,0,0,1-.39.69Zm-.85-2.88a.55.55,0,0,1-.53-.39c-.15-.47-.31-.94-.47-1.41a.56.56,0,1,1,1.06-.37c.16.48.32,1,.47,1.44a.56.56,0,0,1-.36.71Zm-1-2.84a.56.56,0,0,1-.52-.37c-.17-.46-.35-.93-.53-1.39a.56.56,0,0,1,1-.41c.19.47.37.95.54,1.42a.56.56,0,0,1-.33.72A.69.69,0,0,1,267.86,124.71Zm-1.09-2.79a.56.56,0,0,1-.52-.35l-.59-1.37a.56.56,0,1,1,1-.45l.6,1.39a.56.56,0,0,1-.31.73A.54.54,0,0,1,266.77,121.92Zm-1.21-2.75a.56.56,0,0,1-.51-.32c-.21-.45-.42-.9-.64-1.34a.56.56,0,1,1,1-.5c.22.45.44.91.65,1.36a.56.56,0,0,1-.28.75A.46.46,0,0,1,265.56,119.17Zm-130.09-2.29a.6.6,0,0,1-.28-.08.56.56,0,0,1-.2-.77s.29-.48.85-1.3a.56.56,0,0,1,.92.64c-.53.78-.8,1.23-.8,1.23A.58.58,0,0,1,135.47,116.88Zm128.77-.4a.57.57,0,0,1-.5-.3l-.69-1.32a.56.56,0,0,1,.22-.76.55.55,0,0,1,.76.23c.24.44.48.88.71,1.33a.57.57,0,0,1-.24.76A.62.62,0,0,1,264.24,116.48Zm-127.07-2.09a.52.52,0,0,1-.33-.11.56.56,0,0,1-.12-.78c.29-.4.6-.81.92-1.21a.56.56,0,1,1,.88.69l-.9,1.18A.56.56,0,0,1,137.17,114.39Zm125.65-.55a.55.55,0,0,1-.49-.28c-.25-.43-.49-.86-.75-1.29a.56.56,0,0,1,.2-.76.56.56,0,0,1,.77.19c.25.43.51.87.75,1.31a.55.55,0,0,1-.21.76A.52.52,0,0,1,262.82,113.84ZM139,112a.57.57,0,0,1-.35-.12.56.56,0,0,1-.08-.79l1-1.16a.56.56,0,0,1,.85.73l-1,1.14A.57.57,0,0,1,139,112Zm122.28-.75a.57.57,0,0,1-.48-.27c-.26-.42-.52-.84-.79-1.25a.57.57,0,0,1,.17-.78.55.55,0,0,1,.77.17c.28.42.54.85.81,1.27a.58.58,0,0,1-.18.78A.67.67,0,0,1,261.29,111.27ZM141,109.75a.59.59,0,0,1-.37-.14.58.58,0,0,1-.05-.8c.34-.37.68-.75,1-1.11a.57.57,0,0,1,.8,0,.56.56,0,0,1,0,.79l-1,1.1A.57.57,0,0,1,141,109.75Zm118.71-1a.57.57,0,0,1-.47-.25c-.27-.41-.56-.82-.84-1.22a.55.55,0,0,1,.14-.78.56.56,0,0,1,.78.13c.29.41.57.83.85,1.24a.55.55,0,0,1-.15.78A.52.52,0,0,1,259.67,108.76ZM143,107.56a.59.59,0,0,1-.4-.16.58.58,0,0,1,0-.8l1.06-1.07a.56.56,0,1,1,.79.8c-.36.36-.71.71-1,1.06A.58.58,0,0,1,143,107.56ZM258,106.31a.56.56,0,0,1-.45-.23l-.89-1.18a.57.57,0,0,1,.1-.79.56.56,0,0,1,.79.11c.3.39.6.8.9,1.2a.56.56,0,0,1-.12.78A.52.52,0,0,1,258,106.31Zm-112.82-.86a.53.53,0,0,1-.4-.18.56.56,0,0,1,0-.79l1.11-1a.56.56,0,0,1,.79,0,.57.57,0,0,1,0,.8l-1.08,1A.54.54,0,0,1,145.13,105.45Zm111-1.51a.54.54,0,0,1-.43-.21l-.94-1.15a.56.56,0,0,1,.86-.72l.95,1.17a.56.56,0,0,1-.44.91Zm-108.79-.52a.54.54,0,0,1-.42-.19.55.55,0,0,1,.05-.79l1.13-1a.58.58,0,0,1,.8.06.57.57,0,0,1-.07.8l-1.12,1A.59.59,0,0,1,147.34,103.42Zm106.89-1.77a.57.57,0,0,1-.43-.2l-1-1.11a.56.56,0,0,1,.83-.75c.34.37.68.75,1,1.13a.56.56,0,0,1-.05.79A.59.59,0,0,1,254.23,101.65Zm-104.61-.17a.55.55,0,0,1-.44-.21.57.57,0,0,1,.08-.79c.38-.31.77-.63,1.17-.94a.56.56,0,0,1,.7.88l-1.16.93A.53.53,0,0,1,149.62,101.48ZM152,99.62a.55.55,0,0,1-.45-.22.57.57,0,0,1,.1-.79l1.21-.9a.57.57,0,0,1,.67.91c-.41.29-.81.59-1.2.89A.59.59,0,0,1,152,99.62Zm100.25-.2a.58.58,0,0,1-.41-.17c-.33-.36-.68-.72-1-1.07a.57.57,0,0,1,0-.8.58.58,0,0,1,.8,0c.35.36.7.72,1,1.09a.56.56,0,0,1,0,.79A.58.58,0,0,1,252.22,99.42Zm-97.84-1.57a.55.55,0,0,1-.46-.24.55.55,0,0,1,.14-.78l1.23-.86a.57.57,0,0,1,.78.15.55.55,0,0,1-.15.78l-1.22.85A.55.55,0,0,1,154.38,97.85Zm95.74-.56a.59.59,0,0,1-.39-.16c-.35-.35-.71-.69-1.07-1a.56.56,0,1,1,.76-.82l1.1,1a.58.58,0,0,1,0,.8A.58.58,0,0,1,250.12,97.29Zm-93.26-1.12a.55.55,0,0,1-.47-.25.56.56,0,0,1,.16-.78l1.27-.81a.55.55,0,0,1,.77.17.56.56,0,0,1-.18.78l-1.25.8A.55.55,0,0,1,156.86,96.17Zm91.08-.92a.55.55,0,0,1-.38-.15l-1.12-1a.57.57,0,0,1-.06-.79.56.56,0,0,1,.79-.07l1.14,1a.56.56,0,0,1,0,.79A.56.56,0,0,1,247.94,95.25Zm-88.55-.67a.57.57,0,0,1-.48-.27.56.56,0,0,1,.19-.77c.43-.26.86-.52,1.3-.77a.56.56,0,0,1,.56,1c-.43.25-.86.5-1.28.76A.6.6,0,0,1,159.39,94.58Zm86.26-1.27a.54.54,0,0,1-.35-.13l-1.16-.92a.56.56,0,0,1,.68-.89c.4.31.8.62,1.19.94a.56.56,0,0,1,.08.79A.55.55,0,0,1,245.65,93.31ZM162,93.08a.56.56,0,0,1-.27-1q.64-.37,1.32-.72a.55.55,0,0,1,.76.23.56.56,0,0,1-.23.76l-1.31.71A.52.52,0,0,1,162,93.08Zm2.64-1.41a.56.56,0,0,1-.25-1.06c.44-.23.89-.45,1.34-.67a.55.55,0,0,1,.75.25.56.56,0,0,1-.25.75c-.45.22-.9.44-1.33.67A.62.62,0,0,1,164.62,91.67Zm78.66-.19a.59.59,0,0,1-.33-.11l-1.2-.86a.56.56,0,1,1,.63-.92c.41.28.83.58,1.24.88a.56.56,0,0,1,.12.78A.56.56,0,0,1,243.28,91.48Zm-76-1.12a.56.56,0,0,1-.51-.33.56.56,0,0,1,.27-.74c.45-.22.91-.42,1.37-.63a.56.56,0,0,1,.74.28.57.57,0,0,1-.28.75c-.46.2-.91.4-1.35.61A.53.53,0,0,1,167.31,90.36Zm73.51-.59a.48.48,0,0,1-.3-.09l-1.25-.79a.56.56,0,0,1-.19-.77.57.57,0,0,1,.78-.19l1.27.81a.56.56,0,0,1,.16.78A.53.53,0,0,1,240.82,89.77ZM170,89.14a.57.57,0,0,1-.22-1.08l1.39-.58a.56.56,0,0,1,.42,1l-1.37.57A.54.54,0,0,1,170,89.14Zm68.24-.94a.53.53,0,0,1-.28-.07c-.43-.25-.87-.49-1.3-.72a.56.56,0,0,1-.22-.76.55.55,0,0,1,.76-.23l1.32.74a.56.56,0,0,1-.28,1ZM172.82,88a.57.57,0,0,1-.53-.36.55.55,0,0,1,.32-.72L174,86.4a.56.56,0,1,1,.39,1L173,88A.51.51,0,0,1,172.82,88Zm2.81-1a.56.56,0,0,1-.19-1.09l1.43-.48a.56.56,0,1,1,.35,1.06l-1.41.48A.57.57,0,0,1,175.63,87Zm60-.2a.57.57,0,0,1-.25-.06c-.44-.22-.89-.44-1.33-.64a.57.57,0,0,1-.27-.75.56.56,0,0,1,.74-.27l1.37.66a.57.57,0,0,1,.25.75A.56.56,0,0,1,235.64,86.78Zm-57.17-.73a.58.58,0,0,1-.54-.4.57.57,0,0,1,.37-.7l1.44-.43a.56.56,0,0,1,.7.38.55.55,0,0,1-.38.69l-1.43.43A.45.45,0,0,1,178.47,86.05Zm54.46-.53a.57.57,0,0,1-.22,0c-.45-.2-.91-.38-1.37-.56a.57.57,0,0,1-.32-.73.57.57,0,0,1,.73-.32l1.4.57a.56.56,0,0,1-.22,1.08Zm-51.59-.31a.57.57,0,0,1-.54-.41.56.56,0,0,1,.39-.69c.48-.14,1-.27,1.46-.39a.55.55,0,0,1,.68.4.57.57,0,0,1-.4.69l-1.44.38Zm2.9-.75a.56.56,0,0,1-.13-1.1l1.46-.34a.55.55,0,0,1,.67.42.56.56,0,0,1-.42.67l-1.45.34Zm45.9,0-.19,0c-.46-.16-.93-.32-1.4-.46a.56.56,0,0,1,.33-1.07c.48.15,1,.3,1.44.47a.56.56,0,0,1-.18,1.09Zm-43-.63A.56.56,0,0,1,187,82.7l1.48-.29a.57.57,0,0,1,.66.44.56.56,0,0,1-.45.66l-1.46.29Zm40.12-.25-.15,0c-.47-.13-.95-.25-1.43-.35a.56.56,0,0,1,.25-1.1c.49.11,1,.24,1.48.37a.57.57,0,0,1,.39.69A.56.56,0,0,1,227.28,83.56Zm-37.18-.31a.56.56,0,0,1-.1-1.11l1.49-.25a.56.56,0,0,1,.17,1.11l-1.47.24Zm34.26-.35h-.1c-.48-.1-1-.18-1.45-.25a.56.56,0,0,1-.48-.63.57.57,0,0,1,.64-.48c.49.07,1,.16,1.5.25a.56.56,0,0,1-.11,1.12Zm-31.31-.12a.56.56,0,0,1-.08-1.12l1.49-.2a.57.57,0,0,1,.15,1.12l-1.48.2Zm28.36-.32h-.07l-1.48-.15a.56.56,0,0,1,.11-1.12l1.49.15a.56.56,0,0,1,.5.62A.55.55,0,0,1,221.41,82.46ZM196,82.4a.56.56,0,0,1-.06-1.12l1.49-.16a.57.57,0,0,1,.62.51.56.56,0,0,1-.51.61l-1.48.16Zm22.41-.23h-.05l-1.49-.12a.55.55,0,0,1-.51-.6.56.56,0,0,1,.6-.52l1.49.12a.58.58,0,0,1,.52.61A.56.56,0,0,1,218.43,82.17ZM199,82.11a.56.56,0,0,1-.56-.52A.55.55,0,0,1,199,81l1.5-.12a.56.56,0,1,1,.08,1.12c-.5,0-1,.07-1.48.12ZM215.44,82h0l-1.49-.08a.55.55,0,0,1-.53-.59.56.56,0,0,1,.59-.53l1.5.08a.57.57,0,0,1,0,1.13ZM202,81.9a.56.56,0,0,1,0-1.12l1.5-.08a.57.57,0,0,1,.59.54.57.57,0,0,1-.54.59L202,81.9Zm10.47-.09h0l-1.49,0a.54.54,0,0,1-.54-.57.55.55,0,0,1,.57-.55l1.5,0a.55.55,0,0,1,.54.58A.56.56,0,0,1,212.45,81.81Zm-7.48,0a.56.56,0,0,1-.56-.54.57.57,0,0,1,.55-.58l1.5,0h0a.56.56,0,0,1,0,1.12l-1.49,0Zm4.49,0H208a.57.57,0,0,1-.57-.56.57.57,0,0,1,.57-.56h1.5a.57.57,0,0,1,0,1.13Z" transform="translate(-63.09 -80.61)"/><path class="cls-16" d="M191.64,259l-1,1.06c-2.34,2.54-8.7,9.44-15.7,17.38-1.65,1.87-3.35,3.82-5,5.76-2.54,2.94-5,5.87-7.34,8.7l0,0c-.71.83-1.38,1.65-2,2.46-1.38,1.7-2.66,3.33-3.85,4.86-3.55,4.63-6,8.37-6.5,10.27-2.84,11.85,2.68,45.22,4.11,53.38H76.83c2.34-17,5.59-40.91,6-44.56.64-5.74-19.4-30.38-19.74-48.37s11.56-30.83,13.43-48.52c.91-8.33-.12-19.17-1.45-28.41-.69-4.91-1.51-9.29-2.15-12.62a4.63,4.63,0,0,1,1.23-4.17,4.21,4.21,0,0,1,.89-.71,4.56,4.56,0,0,1,4.36-.35c4.44,1.9,9.37,6.93,10.65,19.47,0,0,3.72,2.34,9.73,6.16,2.44,1.53,5.25,3.3,8.36,5.28,2.39,1.5,4.95,3.13,7.64,4.83.17.09.34.22.51.32,1.09.69,2.15,1.38,3.28,2.09h0c.39.25.78.52,1.2.77l2.22,1.4a2.73,2.73,0,0,0,.47.27l15.13,9.64h0c.84.49,1.68,1,2.52,1.57.64.42,1.3.82,2,1.24s1.65,1,2.49,1.57h0c5.84,3.7,11.56,7.35,16.91,10.72.83.54,1.67,1.06,2.49,1.58.66.42,1.3.84,1.94,1.23.87.54,1.65,1.06,2.47,1.6h0c10.2,6.43,18.09,11.46,21,13.31C191.22,258.68,191.64,258.93,191.64,259Z" transform="translate(-63.09 -80.61)"/><path class="cls-17" d="M79,188.65a4,4,0,0,1-3.4,4.24l-.54.08c-.7-4.88-1.5-9.28-2.14-12.61a17.41,17.41,0,0,1-.67-4.85c3.37-1.65,4.67,2.33,5.08,4A51.85,51.85,0,0,1,79,188.65Z" transform="translate(-63.09 -80.61)"/><path class="cls-18" d="M169.9,283.15c-2.54,2.94-5,5.87-7.34,8.7l0,0c-.71.83-1.38,1.65-2,2.46-1.38,1.7-2.66,3.33-3.85,4.86-3.55,4.63-6,8.37-6.5,10.27-2.84,11.85,2.68,45.22,4.11,53.38H103.88c9.34-13.93,10.55-38.45,10.62-49.71a28,28,0,0,1,2.42-9.83c2.81-6.95,7.64-14.74,12.07-21.17,4.09-6,7.86-10.74,9.39-12.64v0c.5-.57.74-.89.74-.89L167,267.41h0l.37,2,.3,1.67,1.28,6.95Z" transform="translate(-63.09 -80.61)"/><path class="cls-10" d="M189.55,295.79l-83.34,8.62a4.79,4.79,0,0,1-5.24-4.26L83.74,133.49A4.79,4.79,0,0,1,88,128.25l83.34-8.62a4.79,4.79,0,0,1,5.24,4.26l17.23,166.66A4.79,4.79,0,0,1,189.55,295.79Z" transform="translate(-63.09 -80.61)"/><path class="cls-11" d="M198.55,294.86l-83.34,8.62a4.79,4.79,0,0,1-5.24-4.26L92.74,132.56A4.79,4.79,0,0,1,97,127.32l83.34-8.62a4.79,4.79,0,0,1,5.24,4.26l17.23,166.66A4.79,4.79,0,0,1,198.55,294.86Z" transform="translate(-63.09 -80.61)"/><path class="cls-19" d="M154,129.11a1,1,0,0,0-1-.84l-24.14,2.5a.94.94,0,1,0,.2,1.87l24.13-2.49A.94.94,0,0,0,154,129.11Z" transform="translate(-63.09 -80.61)"/><path class="cls-19" d="M124.55,131.21a.93.93,0,0,0-.84,1,.94.94,0,1,0,.84-1Z" transform="translate(-63.09 -80.61)"/><path class="cls-20" d="M163.08,288.69a6.09,6.09,0,1,0-5.43,6.69A6.1,6.1,0,0,0,163.08,288.69Z" transform="translate(-63.09 -80.61)"/><rect class="cls-21" x="108.58" y="136.61" width="77.6" height="143.25" transform="translate(-83.72 -64.35) rotate(-5.9)"/><rect class="cls-18" x="115.09" y="262.9" width="77.6" height="16.63" transform="translate(-90.16 -63.35) rotate(-5.9)"/><path class="cls-11" d="M139.3,270.26l39.83-4.12a.84.84,0,1,0-.17-1.67l-39.84,4.12a.84.84,0,0,0-.75.92h0A.85.85,0,0,0,139.3,270.26Z" transform="translate(-63.09 -80.61)"/><path class="cls-11" d="M180.26,268.89a.83.83,0,0,0-.92-.75l-39.84,4.11a.84.84,0,1,0,.18,1.68l39.83-4.12A.84.84,0,0,0,180.26,268.89Z" transform="translate(-63.09 -80.61)"/><path class="cls-10" d="M133,266.64a4.86,4.86,0,0,0-.42-1.57,5.6,5.6,0,0,0-5.82-3.5,5.68,5.68,0,0,0-5,4.6,6.56,6.56,0,0,0-.08,1.66c.32,3.1,6.71,9.46,6.71,9.46S133.36,269.77,133,266.64Zm-5.4,3.18a2.65,2.65,0,0,1-2.91-2.36,2.71,2.71,0,0,1,.35-1.63,2.65,2.65,0,0,1,2-1.31,2.57,2.57,0,0,1,2.24.87,2.64,2.64,0,0,1-1.7,4.43Z" transform="translate(-63.09 -80.61)"/><rect class="cls-11" x="114.12" y="158.74" width="44.74" height="36.89" transform="translate(227.37 258.8) rotate(174.1)"/><rect class="cls-10" x="136.39" y="156.81" width="37.66" height="36.89" transform="translate(-80.29 -63.72) rotate(-5.9)"/><polygon class="cls-20" points="111.79 101.75 112.75 111.06 75.29 114.93 71.5 78.23 111.79 101.75"/><polygon class="cls-20" points="52.1 107.92 59.15 107.19 58.33 105.27 58.8 103.79 51.75 104.52 52.1 107.92"/><polygon class="cls-20" points="50.57 93.14 57.63 92.41 56.8 90.49 57.27 89.01 50.22 89.74 50.57 93.14"/><polygon class="cls-20" points="110.27 86.97 103.21 87.7 103.63 85.65 102.86 84.3 109.91 83.57 110.27 86.97"/><path class="cls-22" d="M122.83,208.29a5.7,5.7,0,0,0-.74-.4,5.09,5.09,0,0,0-2.29-.32,4.73,4.73,0,0,0-4,3.31,4.27,4.27,0,0,0-.2,1.89,4.75,4.75,0,0,0,5.2,4.22,4.35,4.35,0,0,0,2.71-1.26,4.59,4.59,0,0,0,1.5-3.94A4.68,4.68,0,0,0,122.83,208.29Zm.2,7.17a4.17,4.17,0,0,1-6.87-2.74,4.26,4.26,0,0,1,3.72-4.6,3.62,3.62,0,0,1,1.94.29,3.34,3.34,0,0,1,.82.42,4.18,4.18,0,0,1,.39,6.63Z" transform="translate(-63.09 -80.61)"/><polygon class="cls-10" points="54.47 129.53 57.47 134.19 61.48 122.65 57.12 130.79 54.47 129.53"/><path class="cls-22" d="M126.8,229.16a4.71,4.71,0,0,0-2.17-3.52,7.41,7.41,0,0,0-.74-.4,5.15,5.15,0,0,0-2.29-.32,4.74,4.74,0,1,0,5.2,4.24Zm-4.29,4.63a4.17,4.17,0,1,1-.83-8.3,3.83,3.83,0,0,1,1.94.27,3.11,3.11,0,0,1,.81.42,4.12,4.12,0,0,1,1.83,3A4.21,4.21,0,0,1,122.51,233.79Z" transform="translate(-63.09 -80.61)"/><polygon class="cls-10" points="56.26 146.88 59.26 151.54 63.28 140 58.91 148.15 56.26 146.88"/><path class="cls-22" d="M128.6,246.51a4.73,4.73,0,1,0-4.21,5.2A4.75,4.75,0,0,0,128.6,246.51Zm-4.29,4.63a4.17,4.17,0,1,1,3.72-4.58A4.17,4.17,0,0,1,124.31,251.14Z" transform="translate(-63.09 -80.61)"/><path class="cls-22" d="M176.47,205.73l-44.56,4.61a.84.84,0,0,1-.91-.74l0-.18a.84.84,0,0,1,.74-.91l44.56-4.6a.83.83,0,0,1,.91.73l0,.19A.83.83,0,0,1,176.47,205.73Z" transform="translate(-63.09 -80.61)"/><path class="cls-22" d="M176.81,209l-44.57,4.6a.81.81,0,0,1-.9-.73l0-.19a.82.82,0,0,1,.73-.9l44.57-4.61a.83.83,0,0,1,.9.74l0,.18A.83.83,0,0,1,176.81,209Z" transform="translate(-63.09 -80.61)"/><path class="cls-22" d="M133.49,223.59h44.8a.83.83,0,0,1,.83.83v.18a.82.82,0,0,1-.82.82h-44.8a.83.83,0,0,1-.83-.83v-.18A.82.82,0,0,1,133.49,223.59Z" transform="translate(-85.35 -63.39) rotate(-5.9)"/><path class="cls-22" d="M133.83,226.83h44.8a.82.82,0,0,1,.82.82v.18a.83.83,0,0,1-.83.83h-44.8a.83.83,0,0,1-.83-.83v-.18A.82.82,0,0,1,133.83,226.83Z" transform="translate(-85.68 -63.34) rotate(-5.9)"/><path class="cls-22" d="M135.29,241h44.8a.83.83,0,0,1,.83.83V242a.82.82,0,0,1-.82.82h-44.8a.82.82,0,0,1-.82-.82v-.18a.83.83,0,0,1,.83-.83Z" transform="matrix(0.99, -0.1, 0.1, 0.99, -87.12, -63.11)"/><path class="cls-22" d="M135.62,244.21h44.8a.83.83,0,0,1,.83.83v.18a.82.82,0,0,1-.82.82h-44.8a.83.83,0,0,1-.83-.83V245a.82.82,0,0,1,.82-.82Z" transform="translate(-87.45 -63.06) rotate(-5.9)"/><path class="cls-16" d="M188,146.14s12.1-10.75,20-4.65-17.85,25.75-17.85,25.75Z" transform="translate(-63.09 -80.61)"/><rect class="cls-16" x="173.19" y="173.82" width="33" height="21.68" rx="8.47" transform="translate(-128.77 34.28) rotate(-28.95)"/><rect class="cls-16" x="175.62" y="197.37" width="33" height="21.68" rx="8.47" transform="translate(-139.87 38.41) rotate(-28.95)"/><rect class="cls-16" x="177.99" y="220.28" width="33" height="21.68" rx="8.47" transform="translate(-150.67 42.42) rotate(-28.95)"/><path class="cls-17" d="M174.76,185a50.09,50.09,0,0,1,7.89-5,4,4,0,0,1,5.21,1.53l3.08,5.15a3.81,3.81,0,0,1-1.25,5.2,67,67,0,0,1-8.37,4.45,4.7,4.7,0,0,1-5.94-2L173.51,191A4.66,4.66,0,0,1,174.76,185Z" transform="translate(-63.09 -80.61)"/><path class="cls-17" d="M177.26,209.21a50.56,50.56,0,0,1,7.89-5,4,4,0,0,1,5.21,1.53l3.08,5.16a3.8,3.8,0,0,1-1.25,5.19,67,67,0,0,1-8.37,4.45,4.68,4.68,0,0,1-5.93-2L176,215.21A4.66,4.66,0,0,1,177.26,209.21Z" transform="translate(-63.09 -80.61)"/><path class="cls-17" d="M180.05,231.89a50.09,50.09,0,0,1,7.89-5,4,4,0,0,1,5.21,1.54l3.08,5.15a3.81,3.81,0,0,1-1.25,5.2,68.35,68.35,0,0,1-8.37,4.44,4.68,4.68,0,0,1-5.93-2l-1.88-3.32A4.66,4.66,0,0,1,180.05,231.89Z" transform="translate(-63.09 -80.61)"/><polygon class="cls-23" points="192.98 226.43 225.48 231.54 204.08 216.5 202.92 221.21 194.98 222.53 192.98 226.43"/><polygon class="cls-24" points="225.48 231.54 198.58 217.18 172.04 215.47 225.48 231.54"/><polygon class="cls-24" points="204.08 216.5 225.48 231.54 209.08 208.28 204.08 216.5"/><polygon class="cls-23" points="156.44 29.35 131.21 16.34 153.77 16.78 152.19 20.65 157.04 25.61 156.44 29.35"/><polygon class="cls-24" points="131.21 16.34 157.26 20.05 176.61 32.38 131.21 16.34"/><polygon class="cls-24" points="153.77 16.78 131.21 16.34 154.48 8.5 153.77 16.78"/></svg>